<svg xmlns="http://www.w3.org/2000/svg" width="64" height="64" viewBox="0 0 64 64">
  <g fill="none" fill-rule="evenodd" transform="translate(8 6)">
    <circle cx="23.997" cy="23.997" r="23.997" fill="#FFC10E"/>
    <g fill="#ED3533" transform="translate(6.684 11.038)">
      <path d="M11.76.0982278481C10.3288101.0982278481 8.99929114.796151899 8.20010127 1.96475949L8.03524051 2.17427848 7.92496203 2.03372152C7.13488608.822379747 5.80303797.0986329114 4.35716456.0986329114 1.89002532.0986329114.0997468354 1.88941772.0997468354 4.35574684.0997468354 7.99746835 6.69286076 13.3651646 7.17367089 13.7515949 7.40060759 13.9687089 7.69772152 14.0881013 8.01296203 14.0881013 8.32820253 14.0881013 8.62531646 13.9691139 8.85225316 13.7512911 9.33458228 13.3617215 16.0171139 7.90997468 16.0171139 4.35574684 16.0171139 1.88901266 14.2267342.0982278481 11.76.0982278481zM30.4502278.0982278481C29.019038.0982278481 27.689519.796151899 26.8903291 1.96475949L26.7254684 2.17427848 26.6151899 2.03372152C25.8251139.822379747 24.4932658.0986329114 23.0473924.0986329114 20.5802532.0986329114 18.7899747 1.88941772 18.7899747 4.35574684 18.7899747 7.99746835 25.3830886 13.3651646 25.8638987 13.7515949 26.0908354 13.9687089 26.3879494 14.0881013 26.7031899 14.0881013 27.0180253 14.0881013 27.3151392 13.9691139 27.542481 13.7512911 28.0245063 13.3621266 34.7069367 7.90997468 34.7069367 4.35574684 34.7073418 1.88901266 32.916962.0982278481 30.4502278.0982278481z"/>
    </g>
    <path fill="#333" d="M34.7598987,32.0870886 C28.7567595,38.1959494 19.0979241,38.1481519 13.1448101,31.9961519 C12.2941772,31.1170633 10.9558481,32.4580253 11.8053671,33.3355949 C18.465519,40.2185316 29.3895696,40.2552911 36.0993418,33.4265316 C36.9560506,32.555038 35.6170127,31.2147848 34.7598987,32.0870886 L34.7598987,32.0870886 Z"/>
  </g>
</svg>
