<svg xmlns="http://www.w3.org/2000/svg" xmlns:xlink="http://www.w3.org/1999/xlink" width="14" height="14" viewBox="0 0 14 14">
  <defs>
    <path id="calendar-a" d="M57.3846154,266.25 L57.3846154,264.5 C57.3846154,264.177834 57.0832686,263.916667 56.7115385,263.916667 L55.3653846,263.916667 L55.3653846,264.5 C55.3653846,264.822166 55.0640378,265.083333 54.6923077,265.083333 C54.3205776,265.083333 54.0192308,264.822166 54.0192308,264.5 L54.0192308,263.916667 L49.9807692,263.916667 L49.9807692,264.5 C49.9807692,264.822166 49.6794224,265.083333 49.3076923,265.083333 C48.9359622,265.083333 48.6346154,264.822166 48.6346154,264.5 L48.6346154,263.916667 L47.2884615,263.916667 C46.9167314,263.916667 46.6153846,264.177834 46.6153846,264.5 L46.6153846,266.25 L57.3846154,266.25 Z M57.3846154,267.416667 L46.6153846,267.416667 L46.6153846,272.666667 C46.6153846,272.988833 46.9167314,273.25 47.2884615,273.25 L56.7115385,273.25 C57.0832686,273.25 57.3846154,272.988833 57.3846154,272.666667 L57.3846154,267.416667 Z M49.9807692,262.75 L54.0192308,262.75 L54.0192308,262.166667 C54.0192308,261.844501 54.3205776,261.583333 54.6923077,261.583333 C55.0640378,261.583333 55.3653846,261.844501 55.3653846,262.166667 L55.3653846,262.75 L56.7115385,262.75 C57.8267288,262.75 58.7307692,263.533502 58.7307692,264.5 L58.7307692,272.666667 C58.7307692,273.633165 57.8267288,274.416667 56.7115385,274.416667 L47.2884615,274.416667 C46.1732712,274.416667 45.2692308,273.633165 45.2692308,272.666667 L45.2692308,264.5 C45.2692308,263.533502 46.1732712,262.75 47.2884615,262.75 L48.6346154,262.75 L48.6346154,262.166667 C48.6346154,261.844501 48.9359622,261.583333 49.3076923,261.583333 C49.6794224,261.583333 49.9807692,261.844501 49.9807692,262.166667 L49.9807692,262.75 Z"/>
  </defs>
  <g fill="none" fill-rule="evenodd" transform="translate(-45 -261)">
    <use fill="#565656" fill-rule="nonzero" xlink:href="#calendar-a"/>
  </g>
</svg>
