<svg xmlns="http://www.w3.org/2000/svg" width="20" height="20" viewBox="0 0 20 20">
  <path d="M19.765625,9.375 L18.4144141,9.375 C18.1096875,5.21335938 14.7866406,1.8903125 10.625,1.58558594 L10.625,0.234375 L10.625,0.234375 C10.625,0.104933203 10.5200668,7.10542736e-15 10.390625,7.10542736e-15 L9.609375,7.10542736e-15 L9.60937499,7.10542736e-15 C9.47993319,5.65809304e-09 9.37499999,0.104933203 9.37499999,0.234375 C9.37499999,0.234375 9.37499999,0.234375 9.37499999,0.234375 L9.37499999,1.58558594 C5.21335936,1.8903125 1.89031249,5.21335938 1.58558593,9.375 L0.23437499,9.375 L0.23437498,9.375 C0.104933183,9.37500001 -2.04896873e-08,9.4799332 -2.04896873e-08,9.609375 C-2.04896873e-08,9.609375 -2.04896873e-08,9.609375 -2.04896873e-08,9.609375 L-2.04896873e-08,10.390625 L-2.04896851e-08,10.390625 C-9.44528872e-10,10.5200668 0.104933183,10.625 0.23437498,10.625 L1.58558592,10.625 C1.89031248,14.7866407 5.21335935,18.1096875 9.37499998,18.4144141 L9.37499998,19.765625 L9.37499998,19.7656251 C9.375,19.8950669 9.47993318,20.0000001 9.60937498,20.0000001 L10.390625,20.0000001 L10.390625,20.0000001 C10.5200668,20.0000001 10.625,19.8950669 10.625,19.7656251 L10.625,18.4144141 C14.7866406,18.1096876 18.1096875,14.7866407 18.414414,10.6250001 L19.765625,10.6250001 L19.765625,10.6250001 C19.8950668,10.6250001 20,10.5200669 20,10.3906251 L20,9.60937507 L20,9.60937507 C20,9.47993327 19.8950668,9.37500007 19.765625,9.37500007 L19.765625,9.375 Z M10.625,17.1603516 L10.625,14.609375 L10.625,14.609375 C10.625,14.4799332 10.5200668,14.375 10.390625,14.375 L9.609375,14.375 L9.60937499,14.375 C9.47993319,14.375 9.37499999,14.4799332 9.37499999,14.609375 C9.37499999,14.609375 9.37499999,14.609375 9.37499999,14.609375 L9.37499999,17.1603516 C5.90945311,16.8637109 3.13730468,14.1027734 2.83964843,10.625 L5.39062499,10.625 L5.39062498,10.625 C5.52006678,10.625 5.62499998,10.5200668 5.62499998,10.390625 L5.62499998,9.609375 L5.62499998,9.609375 C5.62499998,9.4799332 5.52006678,9.375 5.39062498,9.375 L2.83964842,9.375 C3.13628904,5.90945313 5.89722654,3.13734375 9.37499998,2.83964844 L9.37499998,5.390625 L9.37499998,5.39062504 C9.375,5.52006683 9.47993318,5.62500004 9.60937498,5.62500004 L10.390625,5.62500004 L10.390625,5.62500004 C10.5200668,5.62500004 10.625,5.52006683 10.625,5.39062504 L10.625,2.83964847 C14.0905468,3.1362891 16.8626953,5.8972266 17.1603515,9.37500004 L14.609375,9.37500004 L14.609375,9.37500004 C14.4799332,9.37500004 14.375,9.47993324 14.375,9.60937504 C14.375,9.60937504 14.375,9.60937504 14.375,9.60937504 L14.375,10.390625 L14.375,10.3906251 C14.375,10.5200669 14.4799332,10.6250001 14.609375,10.6250001 L17.1603515,10.6250001 C16.8637109,14.0905469 14.1027734,16.8626563 10.625,17.1603516 L10.625,17.1603516 Z M10.9375,10 C10.9375,10.5177734 10.5177734,10.9375 10,10.9375 C9.48222656,10.9375 9.0625,10.5177734 9.0625,10 C9.0625,9.48222656 9.48222656,9.0625 10,9.0625 C10.5177734,9.0625 10.9375,9.48222656 10.9375,10 Z"/>
</svg>
