<svg xmlns="http://www.w3.org/2000/svg" xmlns:xlink="http://www.w3.org/1999/xlink" width="14" height="14" viewBox="0 0 14 14">
  <defs>
    <path id="forecast-a" d="M50.6538462,327.384615 L56.7115385,327.384615 C57.0832686,327.384615 57.3846154,327.083269 57.3846154,326.711538 L57.3846154,320.653846 L50.6538462,320.653846 L50.6538462,327.384615 Z M49.3076923,327.384615 L49.3076923,320.653846 L46.6153846,320.653846 L46.6153846,326.711538 C46.6153846,327.083269 46.9167314,327.384615 47.2884615,327.384615 L49.3076923,327.384615 Z M57.3846154,319.307692 L57.3846154,317.288462 C57.3846154,316.916731 57.0832686,316.615385 56.7115385,316.615385 L47.2884615,316.615385 C46.9167314,316.615385 46.6153846,316.916731 46.6153846,317.288462 L46.6153846,319.307692 L57.3846154,319.307692 Z M47.2884615,315.269231 L56.7115385,315.269231 C57.8267288,315.269231 58.7307692,316.173271 58.7307692,317.288462 L58.7307692,326.711538 C58.7307692,327.826729 57.8267288,328.730769 56.7115385,328.730769 L47.2884615,328.730769 C46.1732712,328.730769 45.2692308,327.826729 45.2692308,326.711538 L45.2692308,317.288462 C45.2692308,316.173271 46.1732712,315.269231 47.2884615,315.269231 Z"/>
  </defs>
  <g fill="none" fill-rule="evenodd" transform="translate(-45 -315)">
    <use fill="#565656" fill-rule="nonzero" xlink:href="#forecast-a"/>
  </g>
</svg>
