<svg xmlns="http://www.w3.org/2000/svg" width="29" height="29" viewBox="0 0 29 29">
  <path fill="#565656" fill-rule="evenodd" d="M19.03125,1.8125 C23.5358223,1.8125 27.1875,5.46417773 27.1875,9.96875 C27.1875,14.4733223 23.5358223,18.125 19.03125,18.125 C17.9568906,18.125 16.9312422,17.9168457 15.9918574,17.5393926 L13.59375,19.9375 L10.875,19.9375 L10.875,23.5625 L7.25,23.5625 L7.25,27.1875 L1.8125,27.1875 L1.8125,22.65625 L11.4606074,13.0081426 C11.0831543,12.0687578 10.875,11.0431094 10.875,9.96875 C10.875,5.46417773 14.5266777,1.8125 19.03125,1.8125 L19.03125,1.8125 Z M19.03125,0 C13.5266875,0 9.0625,4.46152539 9.0625,9.96875 C9.0625,10.835748 9.17266602,11.6879063 9.39090234,12.5145762 L0.398126953,21.5073516 L0.398126993,21.5073515 C0.143227188,21.7622904 2.04300417e-05,22.108031 3.94167205e-08,22.4685429 L3.94167205e-08,27.640625 C3.94167205e-08,28.3913964 0.608603555,29 1.35937504,29 L7.70312504,29 C8.45389652,29 9.06250004,28.3913964 9.06250004,27.640625 L9.06250004,25.375 L11.328125,25.375 C12.0788965,25.375 12.6875,24.7663964 12.6875,24.015625 L12.6875,21.75 L13.7814571,21.75 C14.1419746,21.75 14.4877657,21.6067558 14.7427051,21.351873 L16.4854805,19.6090976 C17.3120938,19.8273339 18.164252,19.9375 19.03125,19.9375 C24.5358125,19.9375 29,15.4759746 29,9.96874996 C29,4.46418746 24.5384746,-3.94228425e-08 19.03125,-3.94228425e-08 L19.03125,0 Z M21.75,6.1171875 C22.3746328,6.1171875 22.8828125,6.62536719 22.8828125,7.25 C22.8828125,7.87463281 22.3746328,8.3828125 21.75,8.3828125 C21.1253672,8.3828125 20.6171875,7.87463281 20.6171875,7.25 C20.6171875,6.62536719 21.1253672,6.1171875 21.75,6.1171875 L21.75,6.1171875 Z M21.75,4.53125 C20.248457,4.53125 19.03125,5.74845703 19.03125,7.25 C19.03125,8.75154297 20.248457,9.96875 21.75,9.96875 C23.251543,9.96875 24.46875,8.75154297 24.46875,7.25 C24.46875,5.74845703 23.251543,4.53125 21.75,4.53125 Z"/>
</svg>
