<svg xmlns="http://www.w3.org/2000/svg" xmlns:xlink="http://www.w3.org/1999/xlink" width="12" height="14" viewBox="0 0 12 14">
  <defs>
    <path id="logout-a" d="M55.8417088,374.583333 L50.25,374.583333 C49.9278339,374.583333 49.6666667,374.322166 49.6666667,374 C49.6666667,373.677834 49.9278339,373.416667 50.25,373.416667 L55.8417088,373.416667 L54.5041877,372.079146 C54.2763819,371.85134 54.2763819,371.481994 54.5041877,371.254188 C54.7319935,371.026382 55.1013398,371.026382 55.3291456,371.254188 L57.662479,373.587521 C57.8902848,373.815327 57.8902848,374.184673 57.662479,374.412479 L55.3291456,376.745812 C55.1013398,376.973618 54.7319935,376.973618 54.5041877,376.745812 C54.2763819,376.518006 54.2763819,376.14866 54.5041877,375.920854 L55.8417088,374.583333 Z M50.8333333,379.25 C51.1554994,379.25 51.4166667,379.511167 51.4166667,379.833333 C51.4166667,380.155499 51.1554994,380.416667 50.8333333,380.416667 L47.9166667,380.416667 C46.9501684,380.416667 46.1666667,379.633165 46.1666667,378.666667 L46.1666667,369.333333 C46.1666667,368.366835 46.9501684,367.583333 47.9166667,367.583333 L50.8333333,367.583333 C51.1554994,367.583333 51.4166667,367.844501 51.4166667,368.166667 C51.4166667,368.488833 51.1554994,368.75 50.8333333,368.75 L47.9166667,368.75 C47.5945006,368.75 47.3333333,369.011167 47.3333333,369.333333 L47.3333333,378.666667 C47.3333333,378.988833 47.5945006,379.25 47.9166667,379.25 L50.8333333,379.25 Z"/>
  </defs>
  <g fill="none" fill-rule="evenodd" transform="translate(-46 -367)">
    <use fill="#565656" fill-rule="nonzero" xlink:href="#logout-a"/>
  </g>
</svg>
