<svg xmlns="http://www.w3.org/2000/svg" xmlns:xlink="http://www.w3.org/1999/xlink" width="14" height="14" viewBox="0 0 14 14">
  <defs>
    <path id="order-a" d="M10.4730789,5.33642749 C10.4689757,5.33835934 10.4648509,5.34024982 10.4607054,5.34209869 L7.63640984,6.6365675 L7.63640984,12.3351113 L12.3741372,10.1636548 C12.5903919,10.0651502 12.7271909,9.86293012 12.7273189,9.641881 L12.727319,4.30323412 L10.473081,5.33642653 Z M5.24436156,1.90250571 L10.1818644,4.16552784 L11.9375484,3.36083934 L7.2826438,1.22734139 C7.1043874,1.14635326 6.89505432,1.14644115 6.71827304,1.22696353 L5.24436156,1.90250571 Z M3.8214086,2.55469193 L2.06254202,3.36083842 L7.0000462,5.62386118 L8.75891203,4.81771434 L3.8214086,2.55469193 Z M3.48027128,1.40667563 C3.51470495,1.38693797 3.55104441,1.37031086 3.58873092,1.356965 L6.15050075,0.182821504 C6.68565007,-0.0609405014 7.31444233,-0.0609405014 7.84959166,0.182821504 L12.9405007,2.5161548 C13.5892648,2.81166856 13.9996617,3.41832882 14.0000462,4.08271434 L14.0000461,9.64219054 C13.9996617,10.3062665 13.5892648,10.9129268 12.9419094,11.2077969 L7.85118257,13.5410466 C7.31342227,13.7877175 6.6803065,13.7877175 6.14272846,13.5411302 L1.05006161,11.2069881 C0.401917999,10.9076234 -0.00498920873,10.2972626 4.62020813e-05,9.63604767 L4.62916742e-05,4.0824048 C0.000430711271,3.41832882 0.410827599,2.81166856 1.058183,2.51679847 L3.48027128,1.40667563 Z M6.36368257,12.3380279 L6.36368257,6.6365675 L1.27277286,4.30323388 L1.27275806,9.64010723 C1.27107446,9.8618654 1.40671019,10.065319 1.62100031,10.1642985 L6.36368257,12.3380279 Z"/>
  </defs>
  <g fill="none" fill-rule="evenodd" transform="matrix(-1 0 0 1 14 0)">
    <use fill="#5073B8" xlink:href="#order-a"/>
  </g>
</svg>
