<svg xmlns="http://www.w3.org/2000/svg" xmlns:xlink="http://www.w3.org/1999/xlink" width="14" height="12" viewBox="0 0 14 12">
  <defs>
    <path id="overview-a" d="M51.4166667,104.333333 L51.4166667,113.666667 L52.5833333,113.666667 L52.5833333,104.333333 L51.4166667,104.333333 Z M50.8333333,103.166667 L53.1666667,103.166667 C53.4888328,103.166667 53.75,103.427834 53.75,103.75 L53.75,114.25 C53.75,114.572166 53.4888328,114.833333 53.1666667,114.833333 L50.8333333,114.833333 C50.5111672,114.833333 50.25,114.572166 50.25,114.25 L50.25,103.75 C50.25,103.427834 50.5111672,103.166667 50.8333333,103.166667 Z M55.5,106.083333 L57.8333333,106.083333 C58.1554994,106.083333 58.4166667,106.344501 58.4166667,106.666667 L58.4166667,114.25 C58.4166667,114.572166 58.1554994,114.833333 57.8333333,114.833333 L55.5,114.833333 C55.1778339,114.833333 54.9166667,114.572166 54.9166667,114.25 L54.9166667,106.666667 C54.9166667,106.344501 55.1778339,106.083333 55.5,106.083333 Z M46.1666667,109 L48.5,109 C48.8221661,109 49.0833333,109.261167 49.0833333,109.583333 L49.0833333,114.25 C49.0833333,114.572166 48.8221661,114.833333 48.5,114.833333 L46.1666667,114.833333 C45.8445006,114.833333 45.5833333,114.572166 45.5833333,114.25 L45.5833333,109.583333 C45.5833333,109.261167 45.8445006,109 46.1666667,109 Z M56.0833333,107.25 L56.0833333,113.666667 L57.25,113.666667 L57.25,107.25 L56.0833333,107.25 Z M46.75,113.666667 L47.9166667,113.666667 L47.9166667,110.166667 L46.75,110.166667 L46.75,113.666667 Z"/>
  </defs>
  <g fill="none" fill-rule="evenodd" transform="translate(-45 -103)">
    <use fill="#0072EA" fill-rule="nonzero" xlink:href="#overview-a"/>
  </g>
</svg>
