<svg xmlns="http://www.w3.org/2000/svg" width="18" height="16" viewBox="0 0 18 16">
  <path fill="#8280FF" d="M17.7974063,13.7504062 C18.3742188,14.7502187 17.6501875,16 16.498125,16 L1.5016875,16 C0.34740625,16 -0.37328125,14.7483125 0.20240625,13.7504062 L7.70071875,0.74953125 C8.2778125,-0.25075 9.72321875,-0.24896875 10.2992813,0.74953125 L17.7974063,13.7504062 Z M16.9330938,14.250125 L9.43309375,1.250125 C9.24059375,0.9164375 8.758625,0.9178125 8.56690625,1.250125 L1.06690625,14.250125 C0.87446875,14.5836875 1.11659375,15 1.5,15 L16.5,15 C16.8850937,15 17.1246875,14.5822188 16.9330938,14.250125 Z M9,11.625 C8.51675,11.625 8.125,12.01675 8.125,12.5 C8.125,12.98325 8.51675,13.375 9,13.375 C9.48325,13.375 9.875,12.98325 9.875,12.5 C9.875,12.01675 9.48325,11.625 9,11.625 Z M8.6409375,5 L9.35903125,5 C9.57225,5 9.74259375,5.1775625 9.73371875,5.390625 L9.51496875,10.640625 C9.50659375,10.8415 9.34134375,11 9.14028125,11 L8.8596875,11 C8.65865625,11 8.493375,10.8414687 8.485,10.640625 L8.26625,5.390625 C8.25740625,5.1775625 8.42771875,5 8.6409375,5 Z M9,11.625 C8.51675,11.625 8.125,12.01675 8.125,12.5 C8.125,12.98325 8.51675,13.375 9,13.375 C9.48325,13.375 9.875,12.98325 9.875,12.5 C9.875,12.01675 9.48325,11.625 9,11.625 Z"/>
</svg>
