<svg xmlns="http://www.w3.org/2000/svg" xmlns:xlink="http://www.w3.org/1999/xlink" width="24" height="26" viewBox="0 0 24 26">
  <defs>
    <path id="storage-a" d="M17.9538496,9.9105082 C17.9468155,9.91409592 17.9397444,9.91760682 17.9326379,9.92104042 L13.0909883,12.3250539 L13.0909883,22.9080639 L21.2128066,18.8753589 C21.583529,18.6924218 21.8180415,18.3168702 21.818261,17.9063504 L21.8182612,7.99172052 L17.9538532,9.91050641 Z M8.9903341,3.5332249 L17.4546247,7.73598028 L20.4643687,6.24155877 L12.4845322,2.2793483 C12.1789498,2.12894177 11.8200931,2.129105 11.5170395,2.27864656 L8.9903341,3.5332249 Z M6.55098617,4.74442787 L3.53578631,6.24155707 L12.0000792,10.4443136 L15.0152778,8.94718377 L6.55098617,4.74442787 Z M5.96617933,2.6123976 C6.02520849,2.57574195 6.0875047,2.54486302 6.15211014,2.52007786 L10.5437156,0.339525651 C11.4611144,-0.113175217 12.539044,-0.113175217 13.4564428,0.339525651 L22.1837154,4.67285891 C23.2958825,5.22167017 23.99942,6.34832495 24.0000792,7.58218377 L24.000079,17.9069253 C23.99942,19.1402093 23.2958825,20.266864 22.1861304,20.8144799 L13.4591701,25.147658 C12.5372953,25.605761 11.451954,25.605761 10.5303916,25.1478132 L1.80010562,20.8129779 C0.689002285,20.257015 -0.00855292925,19.1234877 7.92035679e-05,17.8955171 L7.93571558e-05,7.58160891 C0.00073836218,6.34832495 0.704275883,5.22167017 1.81402801,4.67405431 L5.96617933,2.6123976 Z M10.9091701,22.9134803 L10.9091701,12.3250539 L2.18189634,7.99172007 L2.18187097,17.9030563 C2.17898478,18.3148929 2.41150319,18.6927353 2.77885767,18.8765543 L10.9091701,22.9134803 Z"/>
  </defs>
  <g fill="none" fill-rule="evenodd">
    <use fill="#0AB39C" xlink:href="#storage-a"/>
  </g>
</svg>
