<svg xmlns="http://www.w3.org/2000/svg" xmlns:xlink="http://www.w3.org/1999/xlink" width="14" height="14" viewBox="0 0 14 14">
  <defs>
    <path id="combined-shape-a" d="M56.7115385,213.25 L53.3461538,213.25 C52.9744237,213.25 52.6730769,212.988833 52.6730769,212.666667 L52.6730769,209.75 L47.9615385,209.75 C47.5898083,209.75 47.2884615,210.011167 47.2884615,210.333333 L47.2884615,219.666667 C47.2884615,219.988833 47.5898083,220.25 47.9615385,220.25 L56.0384615,220.25 C56.4101917,220.25 56.7115385,219.988833 56.7115385,219.666667 L56.7115385,213.25 L57.3846154,213.25 C57.7563455,213.25 58.0576923,212.988833 58.0576923,212.666667 C58.0576923,212.586125 58.0388581,212.509396 58.0047986,212.439607 C58.039964,212.513541 58.0576923,212.589312 58.0576923,212.666667 L58.0576923,219.666667 C58.0576923,220.633165 57.1536519,221.416667 56.0384615,221.416667 L47.9615385,221.416667 C46.8463481,221.416667 45.9423077,220.633165 45.9423077,219.666667 L45.9423077,210.333333 C45.9423077,209.366835 46.8463481,208.583333 47.9615385,208.583333 L53.3461538,208.583333 C53.5246649,208.583333 53.6958647,208.644791 53.8220911,208.754188 L57.8605526,212.254188 C57.9236658,212.308886 57.9729508,212.373328 58.0064574,212.443435 Z M54.0192308,210.574958 L54.0192308,212.083333 L55.7596639,212.083333 L54.0192308,210.574958 Z M54.6923077,215 C55.0640378,215 55.3653846,215.261167 55.3653846,215.583333 C55.3653846,215.905499 55.0640378,216.166667 54.6923077,216.166667 L49.3076923,216.166667 C48.9359622,216.166667 48.6346154,215.905499 48.6346154,215.583333 C48.6346154,215.261167 48.9359622,215 49.3076923,215 L54.6923077,215 Z M54.6923077,217.333333 C55.0640378,217.333333 55.3653846,217.594501 55.3653846,217.916667 C55.3653846,218.238833 55.0640378,218.5 54.6923077,218.5 L49.3076923,218.5 C48.9359622,218.5 48.6346154,218.238833 48.6346154,217.916667 C48.6346154,217.594501 48.9359622,217.333333 49.3076923,217.333333 L54.6923077,217.333333 Z M50.6538462,212.666667 C51.0255763,212.666667 51.3269231,212.927834 51.3269231,213.25 C51.3269231,213.572166 51.0255763,213.833333 50.6538462,213.833333 L49.3076923,213.833333 C48.9359622,213.833333 48.6346154,213.572166 48.6346154,213.25 C48.6346154,212.927834 48.9359622,212.666667 49.3076923,212.666667 L50.6538462,212.666667 Z"/>
  </defs>
  <g fill="none" fill-rule="evenodd" transform="translate(-45 -208)">
    <use fill="#565656" fill-rule="nonzero" xlink:href="#combined-shape-a"/>
  </g>
</svg>
