<svg xmlns="http://www.w3.org/2000/svg" width="21" height="16" viewBox="0 0 21 16">
  <path fill="#F1963A" fill-rule="evenodd" d="M1.96491228,0 L7.36842105,0 C7.63859649,0 7.85964912,0.225 7.85964912,0.5 L7.85964912,0.833333333 C7.85964912,1.10833333 7.63859649,1.33333333 7.36842105,1.33333333 L1.96491228,1.33333333 C1.60467836,1.33333333 1.30994152,1.63333333 1.30994152,2 L1.30994152,14 C1.30994152,14.3666667 1.60467836,14.6666667 1.96491228,14.6666667 L7.36842105,14.6666667 C7.63859649,14.6666667 7.85964912,14.8916667 7.85964912,15.1666667 L7.85964912,15.5 C7.85964912,15.775 7.63859649,16 7.36842105,16 L1.96491228,16 C0.880116959,16 0,15.1041667 0,14 L0,2 C0,0.895833333 0.880116959,0 1.96491228,0 Z M13.3859649,0.8125 L13.0953216,1.10833333 C12.902924,1.30416667 12.902924,1.62083333 13.0953216,1.81666667 L18.4988304,7.29166667 L7.04093567,7.29166667 C6.77076023,7.29166667 6.5497076,7.51666667 6.5497076,7.79166667 L6.5497076,8.20833333 C6.5497076,8.48333333 6.77076023,8.70833333 7.04093567,8.70833333 L18.4988304,8.70833333 L13.0994152,14.1833333 C12.9070175,14.3791667 12.9070175,14.6958333 13.0994152,14.8916667 L13.3900585,15.1875 C13.5824561,15.3833333 13.8935673,15.3833333 14.0859649,15.1875 L20.819883,8.35416667 C21.0122807,8.15833333 21.0122807,7.84166667 20.819883,7.64583333 L14.0818713,0.8125 C13.8894737,0.616666667 13.5783626,0.616666667 13.3859649,0.8125 Z" transform="matrix(1 0 0 -1 0 16)"/>
</svg>
