<svg xmlns="http://www.w3.org/2000/svg" width="189" height="41" viewBox="0 0 189 41">
  <g fill="none" fill-rule="evenodd">
    <path fill="#FFF" d="M42.9165 3.6745L49.1305 3.6745 49.5895 3.6865 50.0345 3.7235 50.4675 3.7845 50.8635 3.8715 51.2605 3.9945 51.6195 4.1415 51.9535 4.3015 52.2625 4.5095 52.5355 4.7305 52.7825 4.9775 52.9935 5.2595 53.1795 5.5675 53.3145 5.8985 53.4265 6.2675 53.4885 6.6495 53.5135 7.0795 53.5005 7.3735 53.4635 7.6685 53.4135 7.9395 53.3515 8.1975 53.2655 8.4435 53.1545 8.6765 53.0305 8.8855 52.8815 9.0825 52.7205 9.2665 52.5465 9.4385 52.3495 9.5865 52.1385 9.7345 51.9165 9.8685 51.6685 9.9915 51.4085 10.1025 51.1365 10.2015 51.1365 10.2375 51.4585 10.3115 51.7675 10.3985 52.0525 10.4955 52.3125 10.6185 52.5595 10.7535 52.7825 10.9015 52.9805 11.0605 53.1665 11.2465 53.3275 11.4295 53.4635 11.6395 53.5865 11.8605 53.6865 12.0935 53.7605 12.3515 53.8105 12.6225 53.8475 12.9055 53.8595 13.2135 53.8225 13.7775 53.7235 14.2945 53.5755 14.7495 53.3765 15.1545 53.1175 15.5235 52.8315 15.8305 52.4975 16.1125 52.1385 16.3455 51.7425 16.5315 51.3225 16.6905 50.8885 16.8265 50.4435 16.9245 49.9855 16.9985 49.5275 17.0475 49.0565 17.0725 48.6105 17.0845 42.9165 17.0845 42.9165 3.6745zM46.5065 14.5515L47.5835 14.5515 47.8185 14.5395 48.0665 14.5395 48.3135 14.5155 48.5495 14.4915 48.7835 14.4545 49.0075 14.4165 49.2175 14.3555 49.4165 14.2815 49.5895 14.1825 49.7625 14.0725 49.9105 13.9505 50.0345 13.8015 50.1335 13.6305 50.2085 13.4465 50.2445 13.2245 50.2705 12.9905 50.2445 12.7195 50.1955 12.4995 50.1215 12.2915 50.0215 12.1185 49.8975 11.9705 49.7495 11.8355 49.5895 11.7245 49.4035 11.6395 49.2055 11.5645 48.9945 11.5045 48.7715 11.4665 48.5495 11.4295 48.3135 11.4055 48.0795 11.3935 46.5065 11.3935 46.5065 14.5515zM46.5065 8.9725L47.5215 8.9725 47.7325 8.9595 47.9555 8.9465 48.1775 8.9355 48.3875 8.8975 48.5985 8.8615 48.7965 8.8125 48.9825 8.7505 49.1555 8.6895 49.3165 8.5915 49.4655 8.4925 49.6015 8.3825 49.7125 8.2465 49.7995 8.0985 49.8615 7.9395 49.8975 7.7555 49.9235 7.5585 49.8975 7.3375 49.8615 7.1405 49.7995 6.9685 49.7125 6.8205 49.6135 6.6985 49.4895 6.5875 49.3415 6.5015 49.1805 6.4275 49.0075 6.3655 48.8335 6.3165 48.6355 6.2795 48.4255 6.2425 48.2145 6.2315 48.0045 6.2185 46.5065 6.2185 46.5065 8.9725zM58.3657 3.6745L64.7907 3.6745 65.2227 3.6865 65.6567 3.7235 66.0767 3.7845 66.4727 3.8715 66.8577 3.9815 67.2167 4.1295 67.5507 4.3015 67.8607 4.4985 68.1447 4.7185 68.3917 4.9645 68.6147 5.2355 68.8007 5.5425 68.9497 5.8745 69.0487 6.2425 69.1227 6.6235 69.1477 7.0535 69.1347 7.3735 69.0977 7.6935 69.0487 7.9885 68.9867 8.2715 68.8877 8.5415 68.7767 8.7995 68.6527 9.0335 68.5037 9.2545 68.3297 9.4635 68.1327 9.6475 67.9227 9.8205 67.6867 9.9795 67.4397 10.1145 67.1547 10.2375 66.8577 10.3485 66.5477 10.4345 66.5477 10.4715 66.7457 10.5325 66.9317 10.6185 67.0927 10.7165 67.2407 10.8275 67.3777 10.9635 67.4887 11.1105 67.5997 11.2705 67.6987 11.4545 67.7857 11.6515 67.8717 11.8605 67.9597 12.0815 68.0457 12.3275 68.1447 12.5735 68.2437 12.8425 68.3557 13.1265 68.4787 13.4335 69.7907 17.0845 66.0277 17.0845 65.2607 14.6625 65.1117 14.2455 64.9887 13.8765 64.8647 13.5315 64.7287 13.2365 64.6047 12.9665 64.4807 12.7325 64.3447 12.5365 64.2087 12.3515 64.0597 12.2045 63.9117 12.0815 63.7507 11.9835 63.5767 11.9095 63.3787 11.8475 63.1807 11.8105 62.9577 11.7875 61.9687 11.7875 61.9687 17.0845 58.3657 17.0845 58.3657 3.6745zM61.9687 9.2425L62.9207 9.2425 63.1317 9.2305 63.3547 9.2305 63.5887 9.2175 63.8127 9.2055 64.0347 9.1805 64.2457 9.1435 64.4557 9.0945 64.6537 9.0335 64.8397 8.9465 65.0127 8.8365 65.1607 8.7135 65.2847 8.5665 65.3967 8.3945 65.4707 8.1855 65.5207 7.9515 65.5457 7.6935 65.5207 7.4605 65.4837 7.2635 65.4087 7.0915 65.3227 6.9305 65.2107 6.7835 65.0747 6.6735 64.9137 6.5625 64.7407 6.4765 64.5547 6.4025 64.3447 6.3535 64.1347 6.3045 63.8987 6.2675 63.6637 6.2425 63.4157 6.2185 61.9687 6.2185 61.9687 9.2425zM77.5527 3.6745L81.9717 3.6745 87.1587 17.0845 83.2227 17.0845 82.2197 14.2205 77.1447 14.2205 76.0797 17.0845 72.4157 17.0845 77.5527 3.6745zM79.7567 6.4395L79.7187 6.4395 77.9737 11.6875 81.3657 11.6875 79.7567 6.4395z"/>
    <polygon fill="#FFF" points="90.786 3.675 95.379 3.675 99.947 12.783 99.984 12.783 99.922 3.675 103.214 3.675 103.214 17.084 98.745 17.084 94.017 7.915 93.98 7.915 94.092 17.084 90.786 17.084"/>
    <path fill="#FFF" d="M108.4257,3.6745 L113.3397,3.6745 L114.1947,3.6865 L115.0237,3.7355 L115.8157,3.8345 L116.5717,3.9815 L117.2647,4.1655 L117.9337,4.3995 L118.5387,4.6945 L119.0957,5.0385 L119.5917,5.4565 L120.0367,5.9245 L120.4087,6.4765 L120.7307,7.0915 L120.9897,7.7675 L121.1637,8.5415 L121.2757,9.3895 L121.3237,10.3245 L121.2757,11.2205 L121.1637,12.0455 L120.9787,12.8065 L120.7177,13.4945 L120.3967,14.1095 L120.0127,14.6625 L119.5537,15.1545 L119.0597,15.5845 L118.4897,15.9535 L117.8827,16.2605 L117.2277,16.5185 L116.5217,16.7275 L115.7797,16.8865 L114.9987,16.9985 L114.1817,17.0595 L113.3397,17.0845 L108.4257,17.0845 L108.4257,3.6745 Z M112.0287,14.4415 L113.4147,14.4415 L113.8977,14.4165 L114.3667,14.3685 L114.8007,14.2945 L115.2097,14.1715 L115.5807,14.0355 L115.9267,13.8515 L116.2377,13.6415 L116.5217,13.4095 L116.7807,13.1385 L116.9917,12.8315 L117.1897,12.4995 L117.3387,12.1315 L117.4627,11.7375 L117.5487,11.3065 L117.5987,10.8525 L117.6227,10.3725 L117.5987,9.8815 L117.5487,9.4265 L117.4497,9.0085 L117.3257,8.6155 L117.1777,8.2465 L116.9797,7.9145 L116.7567,7.6205 L116.4957,7.3495 L116.2117,7.1035 L115.9037,6.8945 L115.5567,6.7225 L115.1717,6.5755 L114.7767,6.4645 L114.3427,6.3905 L113.8847,6.3415 L113.4147,6.3295 L112.0287,6.3295 L112.0287,14.4415 Z"/>
    <polygon fill="#FFF" points="124.53 3.675 128.195 3.675 129.953 13.975 129.99 13.975 131.808 3.675 136.378 3.675 138.271 13.975 138.308 13.975 140.066 3.675 143.582 3.675 140.549 17.084 135.931 17.084 134.012 6.784 133.975 6.784 132.193 17.084 127.526 17.084"/>
    <polygon fill="#FFF" points="147.432 3.675 156.963 3.675 156.963 6.218 151.035 6.218 151.035 8.973 156.629 8.973 156.629 11.505 151.035 11.505 151.035 14.552 157.174 14.552 157.174 17.084 147.432 17.084"/>
    <polygon fill="#FFF" points="161.977 3.675 171.508 3.675 171.508 6.218 165.591 6.218 165.591 8.973 171.186 8.973 171.186 11.505 165.591 11.505 165.591 14.552 171.719 14.552 171.719 17.084 161.977 17.084"/>
    <path fill="#FFF" d="M176.5468,3.6745 L182.9718,3.6745 L183.4038,3.6865 L183.8378,3.7235 L184.2588,3.7845 L184.6538,3.8715 L185.0388,3.9815 L185.3988,4.1295 L185.7328,4.3015 L186.0418,4.4985 L186.3138,4.7185 L186.5728,4.9645 L186.7838,5.2355 L186.9698,5.5425 L187.1178,5.8745 L187.2168,6.2425 L187.2918,6.6235 L187.3168,7.0535 L187.3048,7.3735 L187.2668,7.6935 L187.2168,7.9885 L187.1548,8.2715 L187.0568,8.5415 L186.9578,8.7995 L186.8208,9.0335 L186.6728,9.2545 L186.4998,9.4635 L186.3138,9.6475 L186.0908,9.8205 L185.8678,9.9795 L185.6088,10.1145 L185.3358,10.2375 L185.0388,10.3485 L184.7298,10.4345 L184.7298,10.4715 L184.9278,10.5325 L185.1128,10.6185 L185.2748,10.7165 L185.4218,10.8275 L185.5458,10.9635 L185.6568,11.1105 L185.7688,11.2705 L185.8678,11.4545 L185.9548,11.6515 L186.0418,11.8605 L186.1278,12.0815 L186.2148,12.3275 L186.3138,12.5735 L186.4128,12.8425 L186.5248,13.1265 L186.6488,13.4335 L187.9598,17.0845 L184.2088,17.0845 L183.4418,14.6625 L183.2928,14.2455 L183.1688,13.8765 L183.0338,13.5315 L182.9098,13.2365 L182.7858,12.9665 L182.6498,12.7325 L182.5258,12.5365 L182.3898,12.3515 L182.2408,12.2045 L182.0798,12.0815 L181.9188,11.9835 L181.7458,11.9095 L181.5478,11.8475 L181.3498,11.8105 L181.1268,11.7875 L180.1368,11.7875 L180.1368,17.0845 L176.5468,17.0845 L176.5468,3.6745 Z M180.1368,9.2425 L181.0898,9.2425 L181.3008,9.2305 L181.5238,9.2305 L181.7588,9.2175 L181.9818,9.2055 L182.2038,9.1805 L182.4268,9.1435 L182.6368,9.0945 L182.8348,9.0335 L183.0218,8.9465 L183.1938,8.8365 L183.3428,8.7135 L183.4668,8.5665 L183.5778,8.3945 L183.6518,8.1855 L183.7018,7.9515 L183.7268,7.6935 L183.7018,7.4605 L183.6648,7.2635 L183.5908,7.0915 L183.5028,6.9305 L183.3798,6.7835 L183.2438,6.6735 L183.0948,6.5625 L182.9218,6.4765 L182.7238,6.4025 L182.5258,6.3535 L182.3028,6.3045 L182.0798,6.2675 L181.8318,6.2425 L181.5968,6.2185 L180.1368,6.2185 L180.1368,9.2425 Z"/>
    <polygon fill="#C9AF53" points="13.233 20.649 13.01 20.132 12.762 19.641 12.49 19.161 11.896 18.228 11.586 17.774 11.265 17.318 10.955 16.876 10.633 16.433 10.336 16.003 10.039 15.561 9.767 15.13 9.506 14.688 9.271 14.258 9.074 13.815 8.913 13.373 8.764 13.41 8.616 13.459 8.479 13.508 8.331 13.545 8.194 13.594 8.058 13.655 7.922 13.705 7.65 13.802 7.514 13.864 7.39 13.914 7.266 13.975 7.129 14.024 7.006 14.086 6.882 14.147 6.771 14.209 6.858 15.327 7.006 16.409 7.229 17.428 7.502 18.412 7.823 19.334 8.207 20.207 8.616 21.043 9.061 21.817 9.544 22.542 10.039 23.231 10.559 23.869 11.091 24.459 11.624 25 12.168 25.492 12.7 25.947 13.233 26.364 13.381 25.91 13.505 25.48 13.616 25.062 13.691 24.656 13.753 24.275 13.79 23.906 13.815 23.55 13.815 23.206 13.79 22.861 13.753 22.529 13.703 22.21 13.554 21.571 13.456 21.264"/>
    <polygon fill="#C9AF53" points="19.299 9.918 19.806 9.992 20.302 10.079 20.797 10.165 21.292 10.275 21.775 10.386 22.257 10.508 22.728 10.632 23.198 10.78 23.644 10.927 24.09 11.086 24.523 11.246 24.956 11.418 25.364 11.602 26.156 11.995 26.541 12.216 26.516 13.017 26.479 13.79 26.404 14.565 26.306 15.303 26.195 16.041 26.045 16.741 25.884 17.441 25.698 18.105 25.488 18.768 25.266 19.407 25.03 20.023 24.77 20.625 24.498 21.203 24.214 21.78 23.916 22.322 23.607 22.861 26.218 25.835 26.652 25.148 27.061 24.434 27.469 23.698 27.84 22.936 28.199 22.148 28.546 21.337 28.856 20.502 29.14 19.642 29.4 18.744 29.635 17.834 29.834 16.887 30.007 15.918 30.131 14.921 30.23 13.889 30.292 12.832 30.316 11.762 29.722 11.345 29.091 10.94 28.435 10.569 27.754 10.226 27.036 9.895 26.293 9.598 25.538 9.316 24.746 9.059 23.942 8.825 23.124 8.616 22.282 8.418 21.428 8.248 20.562 8.1 19.682 7.978 18.792 7.878 17.9 7.804 17.962 7.928 18.036 8.063 18.123 8.198 18.197 8.334 18.371 8.604 18.445 8.739 18.544 8.873 18.717 9.145 18.803 9.268 19.002 9.537 19.101 9.661 19.188 9.784"/>
    <polygon fill="#C9AF53" points="3.788 12.217 3.8 13.016 3.837 13.791 3.912 14.565 3.999 15.303 4.122 16.04 4.258 16.74 4.419 17.441 4.605 18.105 4.816 18.769 5.038 19.407 5.274 20.022 5.533 20.625 5.806 21.203 6.102 21.78 6.4 22.321 6.722 22.862 4.098 25.836 3.652 25.148 3.244 24.435 2.835 23.697 2.463 22.936 2.104 22.149 1.758 21.338 1.449 20.502 1.164 19.641 .904 18.744 .668 17.835 .471 16.888 .309 15.917 .174 14.922 .075 13.889 .013 12.832 0 11.762 .446 11.443 .904 11.136 1.387 10.841 1.894 10.558 2.414 10.3 2.946 10.042 3.503 9.808 4.061 9.574 4.642 9.366 5.236 9.17 5.843 8.973 6.462 8.8 7.08 8.64 7.725 8.493 8.368 8.358 9.024 8.235 8.925 8.506 8.888 8.653 8.851 8.788 8.813 8.923 8.777 9.058 8.74 9.194 8.715 9.328 8.69 9.464 8.64 9.735 8.616 9.858 8.603 9.992 8.579 10.238 8.567 10.373 8.232 10.447 7.898 10.533 7.576 10.632 7.254 10.73 6.933 10.828 6.622 10.927 6.314 11.037 6.017 11.148 5.719 11.271 5.422 11.394 5.137 11.517 4.853 11.652 4.58 11.787 4.036 12.058"/>
    <polygon fill="#C9AF53" points="15.152 35.03 14.78 34.894 14.384 34.735 13.963 34.538 13.518 34.329 13.06 34.095 12.576 33.838 12.094 33.543 11.586 33.235 11.066 32.891 10.535 32.522 10.002 32.129 9.457 31.711 8.913 31.269 8.368 30.789 7.823 30.285 7.291 29.769 9.878 26.819 10.237 27.163 10.955 27.802 11.314 28.097 11.661 28.392 12.02 28.651 12.366 28.909 12.713 29.154 13.047 29.376 13.368 29.585 13.691 29.781 14.001 29.967 14.31 30.125 14.594 30.272 14.879 30.421 15.152 30.544 15.411 30.421 15.696 30.272 15.993 30.125 16.29 29.967 16.6 29.781 16.922 29.585 17.256 29.376 17.59 29.154 17.936 28.909 18.284 28.651 18.642 28.392 18.989 28.097 19.348 27.802 20.066 27.163 20.437 26.819 23.025 29.769 22.48 30.285 21.935 30.789 21.391 31.269 20.846 31.711 20.301 32.129 19.769 32.522 19.236 32.891 18.716 33.235 18.209 33.543 17.714 33.838 17.243 34.095 16.785 34.329 16.34 34.538 15.919 34.735 15.523 34.894"/>
    <polygon fill="#C9AF53" points="19.101 20.625 19.473 20.084 19.806 19.543 20.079 19.014 20.326 18.498 20.524 17.982 20.698 17.478 20.822 16.986 20.921 16.495 20.995 16.028 21.032 15.573 21.058 15.13 21.058 14.712 21.032 14.306 20.995 13.925 20.945 13.557 20.895 13.225 21.069 13.274 21.242 13.323 21.588 13.421 21.934 13.544 22.108 13.594 22.27 13.655 22.444 13.717 22.604 13.791 22.765 13.852 22.925 13.914 23.087 13.987 23.235 14.061 23.384 14.135 23.544 14.208 23.422 15.61 23.198 16.937 22.877 18.178 22.48 19.346 21.997 20.44 21.465 21.448 20.884 22.395 20.252 23.255 19.596 24.041 18.927 24.755 18.247 25.406 17.578 25.971 16.922 26.476 16.291 26.905 15.697 27.273 15.152 27.581 15.078 27.544 15.002 27.508 14.93 27.458 14.854 27.421 14.78 27.385 14.706 27.336 14.633 27.299 14.544 27.25 14.47 27.2 14.384 27.15 14.309 27.103 14.223 27.053 14.149 27.004 14.063 26.942 13.976 26.893 13.902 26.844 14.694 25.737 15.287 24.644 15.697 23.563 15.944 22.518 16.055 21.51 16.03 20.526 15.895 19.592 15.684 18.719 15.399 17.884 15.078 17.121 14.719 16.433 14.36 15.806 14.001 15.266 13.691 14.811 13.418 14.442 13.233 14.184 13.072 13.962 12.912 13.729 12.749 13.483 12.589 13.225 12.415 12.967 12.255 12.696 12.107 12.414 11.945 12.131 11.797 11.836 11.524 11.247 11.414 10.951 11.289 10.656 11.191 10.361 11.104 10.054 11.043 9.771 10.943 9.28 10.87 8.776 10.832 8.235 10.832 7.694 10.87 7.116 10.943 6.539 11.066 5.936 11.239 5.321 11.476 4.683 11.759 4.043 12.095 3.392 12.515 2.728 12.986 2.052 13.543 1.375 14.162 .688 14.88 0 15.152 .11 14.806 .75 14.521 1.364 14.286 1.954 14.088 2.507 13.927 3.036 13.803 3.552 13.716 4.031 13.678 4.51 13.655 4.953 13.665 5.395 13.704 5.825 13.777 6.256 13.864 6.661 13.976 7.08 14.1 7.498 14.248 7.915 14.434 8.37 14.668 8.861 14.954 9.354 15.264 9.869 15.598 10.398 15.957 10.939 16.328 11.48 16.7 12.045 17.07 12.599 17.43 13.164 17.764 13.729 18.085 14.294 18.383 14.86 18.63 15.425 18.828 15.991 18.989 16.543 19.026 16.752 19.064 16.974 19.139 17.441 19.151 17.674 19.174 17.908 19.174 18.658 19.163 18.916 19.139 19.187 19.101 19.444 19.064 19.715 19.015 19.985 18.89 20.55"/>
    <path fill="#FFF" fill-rule="nonzero" d="M50.5201,39.8699 L49.3441,39.8699 L49.3441,36.0899 L45.0001,36.0899 L45.0001,39.8699 L43.8241,39.8699 L43.8241,31.3619 L45.0001,31.3619 L45.0001,34.9979 L49.3441,34.9979 L49.3441,31.3619 L50.5201,31.3619 L50.5201,39.8699 Z M58.7721,39.8699 L57.8481,37.4939 L54.0801,37.4939 L53.1801,39.8699 L51.9201,39.8699 L55.3041,31.3619 L56.6601,31.3619 L60.0441,39.8699 L58.7721,39.8699 Z M55.9521,32.5859 L54.5001,36.4019 L57.4281,36.4019 L55.9521,32.5859 Z M67.4681,39.8699 L60.9041,39.8699 L60.9041,38.6939 L65.9801,32.4539 L61.0241,32.4539 L61.0241,31.3619 L67.4081,31.3619 L67.4081,32.5019 L62.3081,38.7659 L67.4681,38.7659 L67.4681,39.8699 Z M75.1201,39.8699 L74.1961,37.4939 L70.4281,37.4939 L69.5281,39.8699 L68.2681,39.8699 L71.6521,31.3619 L73.0081,31.3619 L76.3921,39.8699 L75.1201,39.8699 Z M72.3001,32.5859 L70.8481,36.4019 L73.7761,36.4019 L72.3001,32.5859 Z M82.1961,39.8699 L80.2521,36.3899 L78.9801,36.3899 L78.9801,39.8699 L77.7921,39.8699 L77.7921,31.3619 L80.9961,31.3619 C81.7801039,31.3619 82.4100976,31.6038976 82.8861,32.0879 C83.3621024,32.5719024 83.6001,33.1738964 83.6001,33.8939 C83.6001,34.5099031 83.4161019,35.0358978 83.0481,35.4719 C82.6800982,35.9079022 82.1761032,36.1858994 81.5361,36.3059 L83.5641,39.8699 L82.1961,39.8699 Z M78.9801,35.3339 L80.7801,35.3339 C81.2601024,35.3339 81.6480985,35.2039013 81.9441,34.9439 C82.2401015,34.6838987 82.3881,34.3339022 82.3881,33.8939 C82.3881,33.4458978 82.2401015,33.0879013 81.9441,32.8199 C81.6480985,32.5518987 81.2601024,32.4179 80.7801,32.4179 L78.9801,32.4179 L78.9801,35.3339 Z M86.5961,38.8259 L88.3361,38.8259 C89.1681042,38.8259 89.8580973,38.5499028 90.4061,37.9979 C90.9541028,37.4458972 91.2281,36.6579051 91.2281,35.6339 C91.2281,34.6018948 90.9581027,33.8059028 90.4181,33.2459 C89.8780973,32.6858972 89.1921042,32.4059 88.3601,32.4059 L86.5961,32.4059 L86.5961,38.8259 Z M88.3721,39.8699 L85.4201,39.8699 L85.4201,31.3619 L88.3961,31.3619 C89.5401057,31.3619 90.5000961,31.7398962 91.2761,32.4959 C92.0521039,33.2519038 92.4401,34.2978933 92.4401,35.6339 C92.4401,36.9619066 92.0481039,37.9998963 91.2641,38.7479 C90.4800961,39.4959037 89.5161057,39.8699 88.3721,39.8699 Z M95.8201,33.1499 C95.220097,33.7339029 94.9201,34.5538947 94.9201,35.6099 C94.9201,36.6659053 95.220097,37.489897 95.8201,38.0819 C96.420103,38.673903 97.1440958,38.9699 97.9921,38.9699 C98.8401043,38.9699 99.564097,38.673903 100.1641,38.0819 C100.764103,37.489897 101.0641,36.6659053 101.0641,35.6099 C101.0641,34.5538947 100.764103,33.7319029 100.1641,33.1439 C99.564097,32.5558971 98.8401043,32.2619 97.9921,32.2619 C97.1440958,32.2619 96.420103,32.557897 95.8201,33.1499 Z M93.7201,35.6099 C93.7201,34.9218966 93.8420988,34.2939028 94.0861,33.7259 C94.3301012,33.1578972 94.654098,32.6919018 95.0581,32.3279 C95.462102,31.9638982 95.9160975,31.681901 96.4201,31.4819 C96.9241025,31.281899 97.4480973,31.1819 97.9921,31.1819 C98.5361027,31.1819 99.0600975,31.281899 99.5641,31.4819 C100.068103,31.681901 100.522098,31.9638982 100.9261,32.3279 C101.330102,32.6919018 101.654099,33.1578972 101.8981,33.7259 C102.142101,34.2939028 102.2641,34.9218966 102.2641,35.6099 C102.2641,36.5219046 102.054102,37.3218966 101.6341,38.0099 C101.214098,38.6979034 100.684103,39.2098983 100.0441,39.5459 C99.4040968,39.8819017 98.7201037,40.0499 97.9921,40.0499 C97.2640964,40.0499 96.5801032,39.8819017 95.9401,39.5459 C95.3000968,39.2098983 94.7701021,38.6979034 94.3501,38.0099 C93.9300979,37.3218966 93.7201,36.5219046 93.7201,35.6099 Z M109.2201,39.2339 C108.652097,39.7779027 107.920105,40.0499 107.0241,40.0499 C106.128096,40.0499 105.394103,39.7779027 104.8221,39.2339 C104.250097,38.6898973 103.9641,37.9339048 103.9641,36.9659 L103.9641,31.3619 L105.1281,31.3619 L105.1281,36.9299 C105.1281,37.5779032 105.294098,38.0778982 105.6261,38.4299 C105.958102,38.7819018 106.424097,38.9579 107.0241,38.9579 C107.624103,38.9579 108.088098,38.7819018 108.4161,38.4299 C108.744102,38.0778982 108.9081,37.5779032 108.9081,36.9299 L108.9081,31.3619 L110.0841,31.3619 L110.0841,36.9659 C110.0841,37.9339048 109.796103,38.6898973 109.2201,39.2339 Z M117.7481,33.2939 L116.6921,33.6659 C116.6361,33.2978982 116.456102,32.9639015 116.1521,32.6639 C115.848099,32.3638985 115.428103,32.2139 114.8921,32.2139 C114.420098,32.2139 114.028102,32.3498986 113.7161,32.6219 C113.404098,32.8939014 113.2481,33.229898 113.2481,33.6299 C113.2481,33.9419016 113.342099,34.2058989 113.5301,34.4219 C113.718101,34.6379011 113.988098,34.7858996 114.3401,34.8659 L115.6121,35.1419 C116.316104,35.2939008 116.860098,35.5798979 117.2441,35.9999 C117.628102,36.4199021 117.8201,36.929897 117.8201,37.5299 C117.8201,38.2179034 117.548103,38.8098975 117.0041,39.3059 C116.460097,39.8019025 115.752104,40.0499 114.8801,40.0499 C113.928095,40.0499 113.182103,39.7999025 112.6421,39.2999 C112.102097,38.7998975 111.7881,38.2059034 111.7001,37.5179 L112.8281,37.1579 C112.8761,37.6699026 113.076098,38.1018982 113.4281,38.4539 C113.780102,38.8059018 114.260097,38.9819 114.8681,38.9819 C115.428103,38.9819 115.860099,38.8539013 116.1641,38.5979 C116.468102,38.3418987 116.6201,38.017902 116.6201,37.6259 C116.6201,37.3058984 116.512101,37.0279012 116.2961,36.7919 C116.080099,36.5558988 115.764102,36.3939004 115.3481,36.3059 L114.1361,36.0419 C113.504097,35.9058993 113.000102,35.637902 112.6241,35.2379 C112.248098,34.837898 112.0601,34.3299031 112.0601,33.7139 C112.0601,33.0418966 112.334097,32.4519025 112.8821,31.9439 C113.430103,31.4358975 114.092096,31.1819 114.8681,31.1819 C115.740104,31.1819 116.408098,31.3938979 116.8721,31.8179 C117.336102,32.2419021 117.628099,32.7338972 117.7481,33.2939 Z M132.0321,39.8699 L130.8681,39.8699 L130.8681,33.2459 L127.9641,39.8699 L126.8841,39.8699 L124.0041,33.2459 L124.0041,39.8699 L122.8401,39.8699 L122.8401,31.3619 L124.4361,31.3619 L127.4361,38.2859 L130.4601,31.3619 L132.0321,31.3619 L132.0321,39.8699 Z M140.2841,39.8699 L139.3601,37.4939 L135.5921,37.4939 L134.6921,39.8699 L133.4321,39.8699 L136.8161,31.3619 L138.1721,31.3619 L141.5561,39.8699 L140.2841,39.8699 Z M137.4641,32.5859 L136.0121,36.4019 L138.9401,36.4019 L137.4641,32.5859 Z M148.0801,32.4539 L145.2361,32.4539 L145.2361,39.8699 L144.0601,39.8699 L144.0601,32.4539 L141.2161,32.4539 L141.2161,31.3619 L148.0801,31.3619 L148.0801,32.4539 Z M154.6521,39.8699 L149.4801,39.8699 L149.4801,31.3619 L154.6521,31.3619 L154.6521,32.4539 L150.6561,32.4539 L150.6561,35.0699 L154.2801,35.0699 L154.2801,36.1739 L150.6561,36.1739 L150.6561,38.7779 L154.6521,38.7779 L154.6521,39.8699 Z M161.0561,39.8699 L159.1121,36.3899 L157.8401,36.3899 L157.8401,39.8699 L156.6521,39.8699 L156.6521,31.3619 L159.8561,31.3619 C160.640104,31.3619 161.270098,31.6038976 161.7461,32.0879 C162.222102,32.5719024 162.4601,33.1738964 162.4601,33.8939 C162.4601,34.5099031 162.276102,35.0358978 161.9081,35.4719 C161.540098,35.9079022 161.036103,36.1858994 160.3961,36.3059 L162.4241,39.8699 L161.0561,39.8699 Z M157.8401,35.3339 L159.6401,35.3339 C160.120102,35.3339 160.508099,35.2039013 160.8041,34.9439 C161.100102,34.6838987 161.2481,34.3339022 161.2481,33.8939 C161.2481,33.4458978 161.100102,33.0879013 160.8041,32.8199 C160.508099,32.5518987 160.120102,32.4179 159.6401,32.4179 L157.8401,32.4179 L157.8401,35.3339 Z M165.4801,39.8699 L164.2801,39.8699 L164.2801,31.3619 L165.4801,31.3619 L165.4801,39.8699 Z M173.7321,39.8699 L172.8081,37.4939 L169.0401,37.4939 L168.1401,39.8699 L166.8801,39.8699 L170.2641,31.3619 L171.6201,31.3619 L175.0041,39.8699 L173.7321,39.8699 Z M170.9121,32.5859 L169.4601,36.4019 L172.3881,36.4019 L170.9121,32.5859 Z M181.6001,39.8699 L176.4041,39.8699 L176.4041,31.3619 L177.5801,31.3619 L177.5801,38.7659 L181.6001,38.7659 L181.6001,39.8699 Z M188.6041,33.2939 L187.5481,33.6659 C187.4921,33.2978982 187.312102,32.9639015 187.0081,32.6639 C186.704099,32.3638985 186.284103,32.2139 185.7481,32.2139 C185.276098,32.2139 184.884102,32.3498986 184.5721,32.6219 C184.260098,32.8939014 184.1041,33.229898 184.1041,33.6299 C184.1041,33.9419016 184.198099,34.2058989 184.3861,34.4219 C184.574101,34.6379011 184.844098,34.7858996 185.1961,34.8659 L186.4681,35.1419 C187.172104,35.2939008 187.716098,35.5798979 188.1001,35.9999 C188.484102,36.4199021 188.6761,36.929897 188.6761,37.5299 C188.6761,38.2179034 188.404103,38.8098975 187.8601,39.3059 C187.316097,39.8019025 186.608104,40.0499 185.7361,40.0499 C184.784095,40.0499 184.038103,39.7999025 183.4981,39.2999 C182.958097,38.7998975 182.6441,38.2059034 182.5561,37.5179 L183.6841,37.1579 C183.7321,37.6699026 183.932098,38.1018982 184.2841,38.4539 C184.636102,38.8059018 185.116097,38.9819 185.7241,38.9819 C186.284103,38.9819 186.716099,38.8539013 187.0201,38.5979 C187.324102,38.3418987 187.4761,38.017902 187.4761,37.6259 C187.4761,37.3058984 187.368101,37.0279012 187.1521,36.7919 C186.936099,36.5558988 186.620102,36.3939004 186.2041,36.3059 L184.9921,36.0419 C184.360097,35.9058993 183.856102,35.637902 183.4801,35.2379 C183.104098,34.837898 182.9161,34.3299031 182.9161,33.7139 C182.9161,33.0418966 183.190097,32.4519025 183.7381,31.9439 C184.286103,31.4358975 184.948096,31.1819 185.7241,31.1819 C186.596104,31.1819 187.264098,31.3938979 187.7281,31.8179 C188.192102,32.2419021 188.484099,32.7338972 188.6041,33.2939 Z"/>
    <rect width="146" height="1" x="42.744" y="23.87" fill="#FFF"/>
  </g>
</svg>
