<svg xmlns="http://www.w3.org/2000/svg" width="47" height="44" viewBox="0 0 47 44">
  <g fill="none" fill-rule="evenodd" transform="translate(-2)">
    <rect width="48" height="48"/>
    <g transform="translate(3.692 2.215)">
      <path stroke="#FFF" stroke-width="3.088" d="M19.1220513,38.5476923 L8.22974359,38.5476923 L7.26153846,30.5118881 L0.605128205,25.7387413 C0.302564103,24.3490909 0.181538462,22.899021 0.181538462,21.448951 C0.181538462,9.60671329 9.80307692,0.0604195804 21.6030769,0.0604195804 C33.4635897,0.0604195804 43.0246154,9.66713287 43.0246154,21.448951 C43.0246154,22.899021 42.9035897,24.3490909 42.6010256,25.7387413 L36.0051282,30.5118881 L34.9764103,38.5476923 L24.0841026,38.5476923 L23.4789744,39.031049 C22.934359,39.453986 22.2687179,39.6352448 21.6030769,39.6352448 C20.9374359,39.6352448 20.2717949,39.3935664 19.7271795,39.031049 L19.1220513,38.5476923 L19.1220513,38.5476923 Z"/>
      <path fill="#FBCE07" fill-rule="nonzero" d="M19.1220513,38.5476923 L8.22974359,38.5476923 L7.26153846,30.5118881 L0.605128205,25.7387413 C0.302564103,24.3490909 0.181538462,22.899021 0.181538462,21.448951 C0.181538462,9.60671329 9.80307692,0.0604195804 21.6030769,0.0604195804 C33.4635897,0.0604195804 43.0246154,9.66713287 43.0246154,21.448951 C43.0246154,22.899021 42.9035897,24.3490909 42.6010256,25.7387413 L36.0051282,30.5118881 L34.9764103,38.5476923 L24.0841026,38.5476923 L23.4789744,39.031049 C22.934359,39.453986 22.2687179,39.6352448 21.6030769,39.6352448 C20.9374359,39.6352448 20.2717949,39.3935664 19.7271795,39.031049 L19.1220513,38.5476923 L19.1220513,38.5476923 Z"/>
      <path fill="#DD1D21" d="M19.1220513,38.5476923 L8.22974359,38.5476923 L7.26153846,30.5118881 L0.605128205,25.7387413 C0.302564103,24.3490909 0.181538462,22.899021 0.181538462,21.448951 C0.181538462,9.60671329 9.80307692,0.0604195804 21.6030769,0.0604195804 C33.4030769,0.0604195804 43.0246154,9.66713287 43.0246154,21.448951 C43.0246154,22.899021 42.9035897,24.3490909 42.6010256,25.7387413 L36.0051282,30.5118881 L34.9764103,38.5476923 L24.0841026,38.5476923 L23.4789744,39.031049 C22.934359,39.453986 22.2687179,39.6352448 21.6030769,39.6352448 C20.9374359,39.6352448 20.2717949,39.3935664 19.7271795,39.031049 L19.1220513,38.5476923 L19.1220513,38.5476923 Z M19.4851282,34.8016783 L11.5579487,34.8016783 L10.7712821,28.3972028 L4.23589744,23.6844755 C4.05435897,22.9594406 3.93333333,22.173986 3.93333333,21.3885315 C3.93333333,20.1197203 4.17538462,18.8509091 4.72,17.7029371 L16.2779487,29.3639161 L5.08307692,15.5278322 C5.50666667,13.7152448 6.47487179,12.1443357 7.86666667,10.8755245 L17.9117949,28.2159441 L9.01641026,9.30461538 C10.1661538,7.79412587 11.8,6.64615385 13.6153846,6.10237762 L19.7876923,27.6117483 L15.3097436,5.19608392 C16.7015385,4.41062937 18.214359,4.04811189 19.7876923,4.04811189 C20.0902564,4.04811189 20.4533333,4.04811189 20.7558974,4.10853147 L21.6635897,27.3700699 L22.5712821,4.10853147 C22.8738462,4.04811189 23.2369231,4.04811189 23.5394872,4.04811189 C25.1128205,4.04811189 26.625641,4.47104895 28.0174359,5.19608392 L23.5394872,27.6117483 L29.7117949,6.04195804 C31.5271795,6.58573427 33.1610256,7.73370629 34.3107692,9.2441958 L25.3548718,28.2159441 L35.4,10.8755245 C36.7917949,12.0839161 37.76,13.7152448 38.1835897,15.5278322 L26.9887179,29.3639161 L38.5466667,17.7029371 C39.0912821,18.8509091 39.3333333,20.1197203 39.3333333,21.3885315 C39.3333333,22.173986 39.2123077,22.899021 39.0307692,23.6844755 L32.4953846,28.3972028 L31.7087179,34.8016783 L23.8420513,34.8016783 L22.6317949,35.6475524 C22.3292308,35.8892308 21.9661538,35.9496503 21.6030769,35.9496503 C21.24,35.9496503 20.8769231,35.8288112 20.574359,35.6475524 L19.4851282,34.8016783 Z"/>
    </g>
  </g>
</svg>
